<svg width="80" height="79" viewBox="0 0 80 79" fill="none" xmlns="http://www.w3.org/2000/svg">
<ellipse cx="40" cy="39.5" rx="40" ry="39.5" fill="white"/>
<path fill-rule="evenodd" clip-rule="evenodd" d="M36.2056 19.324C28.3489 20.6996 21.5664 27.7175 20.2609 35.8217C18.0953 49.2684 29.7364 60.9338 43.1624 58.7719C58.7902 56.2552 65.4746 37.2014 54.7999 25.6007C50.0045 20.3894 43.2142 18.0973 36.2056 19.324ZM32.1079 27.2492C33.3082 28.4722 34.2906 29.6575 34.2906 29.8826C34.2906 30.4386 31.3703 33.3241 30.8075 33.3241C30.5596 33.3241 29.3277 32.2753 28.0693 30.9931L25.7819 28.6621L27.5444 26.8435C28.5139 25.8435 29.446 25.025 29.6161 25.025C29.7862 25.025 30.9071 26.0261 32.1079 27.2492ZM52.4481 26.8435L54.2106 28.6621L51.9232 30.9931C50.6648 32.2753 49.4329 33.3241 49.185 33.3241C48.6222 33.3241 45.7019 30.4386 45.7019 29.8826C45.7019 29.4059 49.9179 25.025 50.3764 25.025C50.5465 25.025 51.4786 25.8435 52.4481 26.8435ZM44.5343 32.7126C46.717 34.2666 47.9541 37.0982 47.6455 39.8338C47.1543 44.1945 43.4876 47.1635 39.1923 46.679C29.1975 45.5524 30.5554 30.5958 40.5782 31.4086C41.9253 31.518 43.6588 32.0891 44.5343 32.7126ZM32.7744 46.2516C33.6085 47.0857 34.2906 47.9706 34.2906 48.2185C34.2906 48.4665 33.2371 49.703 31.9497 50.9661L29.6093 53.2634L27.686 51.34L25.7627 49.4167L28.06 47.0763C29.323 45.7889 30.5596 44.7355 30.8075 44.7355C31.0555 44.7355 31.9404 45.4176 32.7744 46.2516ZM51.9325 47.0763L54.2298 49.4167L52.3065 51.34L50.3832 53.2634L48.0428 50.9661C46.7554 49.703 45.7019 48.4696 45.7019 48.2253C45.7019 47.594 48.4479 44.7904 49.0952 44.7604C49.3924 44.7469 50.6695 45.7889 51.9325 47.0763Z" fill="#6F3DFF"/>
</svg>
