<svg width="80" height="79" viewBox="0 0 80 79" fill="none" xmlns="http://www.w3.org/2000/svg">
<ellipse cx="40" cy="39.5" rx="40" ry="39.5" fill="white"/>
<path fill-rule="evenodd" clip-rule="evenodd" d="M37.1149 19.1304C34.9978 19.4675 32.1246 20.4072 30.5798 21.2679C23.8325 25.0276 19.9861 31.5028 20 39.0772C20.0104 44.5874 21.852 49.0945 25.675 52.9665C29.8792 57.2244 34.1008 59.0031 40.0023 59.0031C45.9039 59.0031 50.1255 57.2244 54.3297 52.9665C58.1697 49.0774 60 44.5766 60 39.0235C60 33.4704 58.1697 28.9695 54.3297 25.0805C51.353 22.0655 48.1096 20.1981 44.5099 19.426C42.6228 19.0212 38.7689 18.8671 37.1149 19.1304ZM42.842 27.4978C44.2936 28.1752 45.921 29.8341 46.5158 31.2428C47.0266 32.4533 47.0266 35.2676 46.5158 36.4781C45.921 37.8868 44.2936 39.5457 42.842 40.2231C39.4042 41.8273 35.0033 40.0651 33.4889 36.4781C32.9781 35.2676 32.9781 32.4533 33.4889 31.2428C34.5546 28.7189 37.2863 26.8956 40.0023 26.8956C41.084 26.8956 41.9405 27.077 42.842 27.4978ZM37.8894 44.6057C39.7966 44.9922 40.1244 44.9922 42.0836 44.6073C43.6954 44.2905 44.5267 44.25 45.526 44.4395C47.7807 44.8672 49.7274 46.1182 50.9872 47.9493L51.7384 49.0413L50.1162 50.5507C47.3103 53.1611 44.1366 54.3548 40.0023 54.3548C35.8681 54.3548 32.6944 53.1611 29.8885 50.5507L28.2663 49.0413L29.0175 47.9493C30.4533 45.8622 32.7426 44.5611 35.588 44.2149C35.7157 44.1991 36.7515 44.3752 37.8894 44.6057Z" fill="#6F3DFF"/>
</svg>
